<?xml version="1.0" encoding="utf-8"?>
<!-- Generator: Adobe Illustrator 21.0.0, SVG Export Plug-In . SVG Version: 6.00 Build 0)  -->
<svg version="1.1" id="Layer_1" xmlns="http://www.w3.org/2000/svg" xmlns:xlink="http://www.w3.org/1999/xlink" x="0px" y="0px"
	 viewBox="0 0 1000 1000" style="enable-background:new 0 0 1000 1000;" xml:space="preserve">
<style type="text/css">
	.st0{fill:#CF5662;}
	.st1{fill:none;stroke:#FFFFFF;stroke-width:17;stroke-miterlimit:10;}
	.st2{fill:none;stroke:#CF5662;stroke-width:35;stroke-miterlimit:10;}
	.st3{fill:#CF5662;stroke:#FFFFFF;stroke-width:17;stroke-miterlimit:10;}
</style>
<polygon class="st0" points="180.1,270.7 262.8,190.2 677.1,577.5 594.4,658 "/>
<polygon class="st0" points="676.6,579.5 739.5,717.2 593.9,660.1 "/>
<line class="st1" x1="542.8" y1="707.5" x2="704.6" y2="546.7"/>
<path class="st2" d="M876,865.4H137.5c-6.6,0-12-5.4-12-12V150c0-6.6,5.4-12,12-12H876c6.6,0,12,5.4,12,12v703.3
	C888,860,882.6,865.4,876,865.4z"/>
<path class="st3" d="M166.4,264.8l89.4-86.3l-79.9-74c-6.5-6.1-17-6-23.3,0.1l-66.4,64c-6.4,6.1-6.3,16,0.3,22.1L166.4,264.8z"/>
<rect x="671.9" y="231" transform="matrix(-1.836970e-16 1 -1 -1.836970e-16 1060.1703 -343.4297)" class="st0" width="59.7" height="254.8"/>
</svg>
