<?xml version="1.0" encoding="utf-8"?>
<!-- Generator: Adobe Illustrator 21.0.0, SVG Export Plug-In . SVG Version: 6.00 Build 0)  -->
<svg version="1.1" id="Layer_1" xmlns="http://www.w3.org/2000/svg" xmlns:xlink="http://www.w3.org/1999/xlink" x="0px" y="0px"
	 viewBox="0 0 1000 1000" style="enable-background:new 0 0 1000 1000;" xml:space="preserve">
<style type="text/css">
	.st0{fill:#CF5662;}
	.st1{fill:none;stroke:#FFFFFF;stroke-width:17;stroke-miterlimit:10;}
	.st2{fill:none;stroke:#CF5662;stroke-width:35;stroke-miterlimit:10;}
	.st3{fill:#CF5662;stroke:#FFFFFF;stroke-width:17;stroke-miterlimit:10;}
</style>
<polygon class="st0" points="172.1,252.3 254.8,171.8 669.1,559.1 586.4,639.6 "/>
<polygon class="st0" points="668.6,561.2 731.5,698.8 585.9,641.7 "/>
<line class="st1" x1="534.8" y1="689.1" x2="696.6" y2="528.3"/>
<path class="st2" d="M868,847H129.5c-6.6,0-12-5.4-12-12V131.7c0-6.6,5.4-12,12-12H868c6.6,0,12,5.4,12,12V835
	C880,841.6,874.6,847,868,847z"/>
<path class="st3" d="M158.4,246.4l89.4-86.3l-79.9-74c-6.5-6.1-17-6-23.3,0.1l-66.4,64c-6.4,6.1-6.3,16,0.3,22.1L158.4,246.4z"/>
<rect x="662.5" y="218.5" class="st0" width="62.6" height="243.1"/>
<rect x="663.9" y="212.6" transform="matrix(-1.836970e-16 1 -1 -1.836970e-16 1033.7974 -353.8026)" class="st0" width="59.7" height="254.8"/>
</svg>
