<?xml version="1.0" encoding="utf-8"?>
<!-- Generator: Adobe Illustrator 21.0.0, SVG Export Plug-In . SVG Version: 6.00 Build 0)  -->
<svg version="1.1" id="Layer_1" xmlns="http://www.w3.org/2000/svg" xmlns:xlink="http://www.w3.org/1999/xlink" x="0px" y="0px"
	 viewBox="0 0 1000 1000" style="enable-background:new 0 0 1000 1000;" xml:space="preserve">
<style type="text/css">
	.st0{fill:#CF5662;}
	.st1{fill:none;stroke:#FFFFFF;stroke-width:8;stroke-miterlimit:10;}
</style>
<circle class="st0" cx="407.1" cy="375.7" r="172.8"/>
<path class="st0" d="M470.6,599.8H343.9c-6.6,0-12-5.4-12-12V461.1c0-6.6,5.4-12,12-12h126.7c6.6,0,12,5.4,12,12v126.7
	C482.6,594.4,477.2,599.8,470.6,599.8z"/>
<path class="st0" d="M380.4,572.4c0,0-146.3,13.7-243,81.9c-64,45.1-50.2,175.6-50.2,175.6h346.3l2-281.4L380.4,572.4z"/>
<path class="st0" d="M428,572.4c0,0,146.3,13.7,243,81.9c64,45.1,50.2,175.6,50.2,175.6H374.9l-2-281.4L428,572.4z"/>
<rect x="698.7" y="243.5" transform="matrix(0.8565 0.5161 -0.5161 0.8565 303.5373 -320.2162)" class="st0" width="58" height="284.6"/>
<path class="st0" d="M785.3,236.4l49.7,29.9l21.1-35c4.9-8.1,2.3-18.6-5.8-23.5l-20.3-12.3c-8.1-4.9-18.6-2.3-23.5,5.8L785.3,236.4z
	"/>
<polygon class="st0" points="678,522.7 616.2,569 628.3,492.8 "/>
<line class="st1" x1="598.8" y1="474" x2="697.6" y2="532.1"/>
</svg>
