<?xml version="1.0" encoding="utf-8"?>
<!-- Generator: Adobe Illustrator 21.0.0, SVG Export Plug-In . SVG Version: 6.00 Build 0)  -->
<svg version="1.1" id="Layer_1" xmlns="http://www.w3.org/2000/svg" xmlns:xlink="http://www.w3.org/1999/xlink" x="0px" y="0px"
	 viewBox="0 0 1000 1000" style="enable-background:new 0 0 1000 1000;" xml:space="preserve">
<style type="text/css">
	.st0{fill:#CF5662;}
	.st1{fill:#D15661;}
</style>
<circle class="st0" cx="355" cy="441.3" r="172.8"/>
<path class="st0" d="M418.5,665.4H291.8c-6.6,0-12-5.4-12-12V526.7c0-6.6,5.4-12,12-12h126.7c6.6,0,12,5.4,12,12v126.7
	C430.5,660,425.1,665.4,418.5,665.4z"/>
<path class="st0" d="M328.3,638c0,0-146.3,13.7-243,81.9c-64,45.1-50.2,175.6-50.2,175.6h346.3l2-281.4L328.3,638z"/>
<path class="st0" d="M375.9,638c0,0,146.3,13.7,243,81.9c64,45.1,50.2,175.6,50.2,175.6H322.8l-2-281.4L375.9,638z"/>
<g id="Settings">
	<g>
		<path class="st1" d="M965.6,269.6c-0.7-6.2-7.9-10.9-14.2-10.9c-20.2,0-38.2-11.9-45.7-30.2c-7.7-18.8-2.7-40.7,12.3-54.6
			c4.7-4.3,5.3-11.6,1.3-16.6c-10.3-13.1-22.1-25-34.9-35.3c-5-4-12.4-3.5-16.8,1.4c-13.1,14.6-36.8,20-55,12.4
			c-19-8-31-27.2-29.8-47.9c0.4-6.5-4.4-12.1-10.8-12.9c-16.5-1.9-33.1-2-49.6-0.1c-6.4,0.7-11.1,6.2-10.9,12.6
			c0.7,20.5-11.4,39.4-30.2,47.1c-18,7.4-41.5,2-54.6-12.4c-4.3-4.8-11.6-5.3-16.6-1.4c-13.2,10.4-25.2,22.3-35.7,35.3
			c-4.1,5.1-3.5,12.4,1.3,16.8c15.4,13.9,20.3,36,12.3,55c-7.6,18.1-26.4,29.8-48,29.8c-7-0.2-12,4.5-12.7,10.8
			c-1.9,16.6-2,33.5-0.1,50.2c0.7,6.2,8.1,10.8,14.5,10.8c19.2-0.5,37.7,11.4,45.4,30.2c7.7,18.8,2.8,40.7-12.3,54.6
			c-4.7,4.3-5.3,11.6-1.3,16.6c10.3,13.1,22,24.9,34.9,35.3c5.1,4.1,12.4,3.5,16.8-1.3c13.2-14.6,36.8-20,55-12.4
			c19,8,31,27.2,29.8,47.9c-0.4,6.5,4.4,12.1,10.8,12.9c8.4,1,16.9,1.5,25.4,1.5c8.1,0,16.1-0.4,24.2-1.3
			c6.4-0.7,11.1-6.2,10.9-12.6c-0.7-20.4,11.4-39.4,30.2-47c18.2-7.4,41.5-2,54.6,12.4c4.4,4.7,11.6,5.3,16.6,1.4
			c13.2-10.3,25.2-22.2,35.7-35.3c4.1-5.1,3.5-12.4-1.3-16.8c-15.4-13.9-20.3-36-12.4-55c7.5-17.9,25.6-29.9,45.1-29.9l2.7,0.1
			c6.3,0.5,12.1-4.4,12.9-10.8C967.5,303.2,967.5,286.3,965.6,269.6z M746.7,368.1c-40.6,0-73.6-33-73.6-73.6
			c0-40.6,33-73.6,73.6-73.6c40.6,0,73.6,33,73.6,73.6C820.3,335.1,787.3,368.1,746.7,368.1z"/>
	</g>
</g>
</svg>
