<?xml version="1.0" encoding="utf-8"?>
<!-- Generator: Adobe Illustrator 21.0.0, SVG Export Plug-In . SVG Version: 6.00 Build 0)  -->
<svg version="1.1" id="Layer_1" xmlns="http://www.w3.org/2000/svg" xmlns:xlink="http://www.w3.org/1999/xlink" x="0px" y="0px"
	 viewBox="0 0 512 512" style="enable-background:new 0 0 512 512;" xml:space="preserve">
<style type="text/css">
	.st0{fill:#FFFFFF;}
</style>
<path id="instagram-icon" class="st0" d="M355.5,187.3h139.8v214.6c0,52.3-42.4,94.6-94.6,94.6H111.4c-52.3,0-94.6-42.4-94.6-94.6
	V187.3H156c-14.2,20-22.6,44.5-22.6,70.9c0,67.6,54.8,122.4,122.4,122.4s122.4-54.8,122.4-122.4
	C378.1,231.8,369.7,207.3,355.5,187.3z M495.3,110.1v62.2H342.9c-22.2-22.5-53.1-36.5-87.2-36.5s-65,14-87.2,36.5H16.7v-62.2
	c0-31.9,15.8-60.1,40-77.2v101.9h19.4V22.3c4.4-1.8,9-3.2,13.7-4.3v116.8h19.4V15.6c0.7,0,1.5-0.1,2.2-0.1h11.2v119.3H142V15.5
	h258.6C452.9,15.5,495.3,57.9,495.3,110.1z M452,70.3c0-8.4-6.8-15.2-15.2-15.2h-51.2c-8.4,0-15.2,6.8-15.2,15.2v52.3
	c0,8.4,6.8,15.2,15.2,15.2h51.2c8.4,0,15.2-6.8,15.2-15.2V70.3L452,70.3z M161.4,258.2c0-28.2,12.5-53.6,32.2-70.9
	c6.9-6.1,14.7-11.1,23.2-15c11.9-5.4,25-8.4,38.9-8.4s27,3,38.9,8.4c8.5,3.9,16.3,8.9,23.2,15c19.7,17.3,32.2,42.7,32.2,70.9
	c0,52-42.3,94.3-94.3,94.3S161.4,310.2,161.4,258.2z M186.3,258.2c0,38.5,31.2,69.7,69.7,69.7s69.7-31.2,69.7-69.7
	s-31.2-69.7-69.7-69.7C217.5,188.5,186.3,219.7,186.3,258.2z"/>
</svg>
