<?xml version="1.0" encoding="utf-8"?>
<!-- Generator: Adobe Illustrator 21.0.0, SVG Export Plug-In . SVG Version: 6.00 Build 0)  -->
<svg version="1.1" id="Layer_1" xmlns="http://www.w3.org/2000/svg" xmlns:xlink="http://www.w3.org/1999/xlink" x="0px" y="0px"
	 viewBox="0 0 500 500" style="enable-background:new 0 0 500 500;" xml:space="preserve">
<style type="text/css">
	.st0{fill:#FFFFFF;}
</style>
<path class="st0" d="M411.9,10.9H87.7C45.4,10.9,11,45.2,11,87.6v324.3c0,42.3,34.3,76.7,76.7,76.7h324.2
	c42.4,0,76.7-34.4,76.7-76.8V87.6C488.6,45.3,454.3,10.9,411.9,10.9z M411.8,184.3c0.1,3.2,0.2,6.5,0.2,9.7
	c0,98.8-74.7,212.6-211.3,212.6c-41.9,0-80.9-12.4-113.8-33.6c5.8,0.6,11.7,1,17.7,1c34.8,0,66.8-12,92.2-32
	c-32.5-0.6-59.9-22.2-69.4-51.9c4.6,0.8,9.2,1.3,14,1.3c6.8,0,13.4-0.9,19.6-2.6c-34-6.9-59.6-37.1-59.6-73.3c0-0.3,0-0.6,0-0.9
	c10,5.6,21.4,8.9,33.6,9.3c-19.9-13.4-33-36.3-33-62.2c0-13.7,3.7-26.6,10.1-37.6c36.7,45.2,91.4,75,153.1,78.1
	c-1.2-5.4-1.9-11.1-1.9-17c0-41.3,33.3-74.7,74.3-74.7c21.4,0,40.7,9.1,54.2,23.6c17-3.3,32.9-9.5,47.2-18.1
	c-5.6,17.4-17.4,32.1-32.7,41.3c15.1-1.8,29.4-5.9,42.7-11.8C439,160.5,426.5,173.7,411.8,184.3z"/>
</svg>
