<?xml version="1.0" encoding="utf-8"?>
<!-- Generator: Adobe Illustrator 21.0.0, SVG Export Plug-In . SVG Version: 6.00 Build 0)  -->
<svg version="1.1" id="Layer_1" xmlns="http://www.w3.org/2000/svg" xmlns:xlink="http://www.w3.org/1999/xlink" x="0px" y="0px"
	 viewBox="0 0 500 500" style="enable-background:new 0 0 500 500;" xml:space="preserve">
<style type="text/css">
	.st0{fill:#FFFFFF;}
	.st1{fill:#252525;}
</style>
<path class="st0" d="M411.9,488.6H87.7c-42.4,0-76.7-34.4-76.7-76.7V87.6c0-42.4,34.4-76.7,76.7-76.7h324.2
	c42.4,0,76.7,34.4,76.7,76.7v324.2C488.6,454.2,454.3,488.6,411.9,488.6z"/>
<path class="st1" d="M449,145.5c-13.3,5.9-27.6,10-42.7,11.8c15.3-9.2,27.1-23.9,32.7-41.3c-14.3,8.6-30.2,14.8-47.2,18.1
	c-13.5-14.5-32.8-23.6-54.2-23.6c-41,0-74.3,33.4-74.3,74.7c0,5.9,0.7,11.6,1.9,17c-61.7-3.1-116.4-32.9-153.1-78.1
	c-6.4,11-10.1,23.9-10.1,37.6c0,25.9,13.1,48.8,33,62.2c-12.2-0.4-23.6-3.7-33.6-9.3c0,0.3,0,0.6,0,0.9c0,36.2,25.6,66.4,59.6,73.3
	c-6.2,1.7-12.8,2.6-19.6,2.6c-4.8,0-9.4-0.5-14-1.3c9.5,29.7,36.9,51.3,69.4,51.9c-25.4,20-57.4,32-92.2,32c-6,0-11.9-0.4-17.7-1
	c32.9,21.2,71.9,33.6,113.8,33.6c136.6,0,211.3-113.8,211.3-212.6c0-3.2-0.1-6.5-0.2-9.7C426.5,173.7,439,160.5,449,145.5z"/>
</svg>
